<svg width="28" height="22" viewBox="0 0 28 22" fill="none" xmlns="http://www.w3.org/2000/svg">
<path d="M26.3332 9.62981L4.96916 9.62981L12.2321 2.38055C12.3606 2.25316 12.4625 2.10159 12.5321 1.9346C12.6017 1.76761 12.6375 1.58849 12.6375 1.40759C12.6375 1.22668 12.6017 1.04757 12.5321 0.880576C12.4625 0.713584 12.3606 0.56202 12.2321 0.434626C12.1047 0.306183 11.9532 0.204234 11.7862 0.134661C11.6192 0.0650907 11.4401 0.0292726 11.2592 0.0292725C11.0783 0.0292725 10.8991 0.0650906 10.7322 0.134661C10.5652 0.204234 10.4136 0.306183 10.2862 0.434626L0.69361 10.0272C0.565168 10.1546 0.463218 10.3062 0.393645 10.4732C0.324075 10.6402 0.288257 10.8193 0.288257 11.0002C0.288257 11.1811 0.324075 11.3602 0.393645 11.5272C0.463218 11.6942 0.565167 11.8457 0.69361 11.9731L10.2862 21.5657C10.414 21.6935 10.5657 21.7949 10.7326 21.864C10.8995 21.9332 11.0785 21.9687 11.2592 21.9687C11.6241 21.9687 11.9741 21.8238 12.2321 21.5657C12.3599 21.438 12.4613 21.2863 12.5304 21.1193C12.5996 20.9524 12.6351 20.7735 12.6351 20.5928C12.6351 20.2278 12.4902 19.8779 12.2321 19.6198L4.96916 12.3705L26.3332 12.3706C26.6967 12.3706 27.0452 12.2262 27.3022 11.9692C27.5592 11.7122 27.7036 11.3636 27.7036 11.0002C27.7036 10.6367 27.5592 10.2882 27.3022 10.0312C27.0452 9.77419 26.6967 9.62981 26.3332 9.62981Z" fill="#526359"/>
</svg>
