<svg width="28" height="22" viewBox="0 0 28 22" fill="none" xmlns="http://www.w3.org/2000/svg">
<path d="M1.66664 12.3702H23.0307L15.7677 19.6194C15.6393 19.7468 15.5374 19.8984 15.4678 20.0654C15.3982 20.2324 15.3624 20.4115 15.3624 20.5924C15.3624 20.7733 15.3982 20.9524 15.4678 21.1194C15.5374 21.2864 15.6393 21.438 15.7677 21.5654C15.8951 21.6938 16.0467 21.7958 16.2137 21.8653C16.3807 21.9349 16.5598 21.9707 16.7407 21.9707C16.9216 21.9707 17.1007 21.9349 17.2677 21.8653C17.4347 21.7958 17.5863 21.6938 17.7137 21.5654L27.3063 11.9728C27.4347 11.8454 27.5367 11.6938 27.6062 11.5268C27.6758 11.3598 27.7116 11.1807 27.7116 10.9998C27.7116 10.8189 27.6758 10.6398 27.6062 10.4728C27.5367 10.3058 27.4347 10.1543 27.3063 10.0269L17.7137 0.434265C17.5859 0.306493 17.4342 0.20514 17.2673 0.13599C17.1003 0.0668411 16.9214 0.03125 16.7407 0.03125C16.3758 0.03125 16.0258 0.176219 15.7677 0.434265C15.64 0.562036 15.5386 0.713723 15.4695 0.880664C15.4003 1.04761 15.3647 1.22653 15.3647 1.40723C15.3647 1.77216 15.5097 2.12214 15.7677 2.38019L23.0307 9.62945H1.66664C1.30319 9.62945 0.954631 9.77383 0.697637 10.0308C0.440643 10.2878 0.296265 10.6364 0.296265 10.9998C0.296265 11.3633 0.440643 11.7118 0.697637 11.9688C0.954631 12.2258 1.30319 12.3702 1.66664 12.3702Z" fill="#334859"/>
</svg>
